<svg width="129" height="27" viewBox="0 0 129 27" fill="none" xmlns="http://www.w3.org/2000/svg">
<path d="M0.510653 26V0.545454H16.8175V4.41087H5.1218V11.3214H15.6989V15.1868H5.1218V26H0.510653Z" fill="#E9A62A"/>
<path d="M27.7457 26.3729C25.8813 26.3729 24.2655 25.9627 22.8983 25.1424C21.5312 24.3221 20.4706 23.1745 19.7165 21.6996C18.9708 20.2247 18.5979 18.5012 18.5979 16.5291C18.5979 14.5571 18.9708 12.8294 19.7165 11.3462C20.4706 9.86304 21.5312 8.71129 22.8983 7.89098C24.2655 7.07067 25.8813 6.66051 27.7457 6.66051C29.61 6.66051 31.2258 7.07067 32.593 7.89098C33.9601 8.71129 35.0166 9.86304 35.7623 11.3462C36.5164 12.8294 36.8934 14.5571 36.8934 16.5291C36.8934 18.5012 36.5164 20.2247 35.7623 21.6996C35.0166 23.1745 33.9601 24.3221 32.593 25.1424C31.2258 25.9627 29.61 26.3729 27.7457 26.3729ZM27.7705 22.7685C28.7814 22.7685 29.6266 22.4909 30.306 21.9357C30.9855 21.3723 31.4909 20.6183 31.8224 19.6737C32.1621 18.729 32.3319 17.6767 32.3319 16.5167C32.3319 15.3484 32.1621 14.2919 31.8224 13.3473C31.4909 12.3944 30.9855 11.6362 30.306 11.0728C29.6266 10.5094 28.7814 10.2276 27.7705 10.2276C26.7348 10.2276 25.873 10.5094 25.1853 11.0728C24.5058 11.6362 23.9962 12.3944 23.6565 13.3473C23.3251 14.2919 23.1594 15.3484 23.1594 16.5167C23.1594 17.6767 23.3251 18.729 23.6565 19.6737C23.9962 20.6183 24.5058 21.3723 25.1853 21.9357C25.873 22.4909 26.7348 22.7685 27.7705 22.7685ZM40.7122 26V6.90909H45.0748V10.0909H45.2736C45.6216 8.98887 46.2182 8.13956 47.0634 7.54297C47.9168 6.93809 48.8904 6.63565 49.9842 6.63565C50.2328 6.63565 50.5104 6.64808 50.8169 6.67294C51.1318 6.68951 51.3928 6.71851 51.6 6.75994V10.8988C51.4094 10.8325 51.1069 10.7745 50.6926 10.7248C50.2866 10.6668 49.8931 10.6378 49.5119 10.6378C48.6916 10.6378 47.9541 10.8159 47.2995 11.1722C46.6532 11.5202 46.1436 12.005 45.7708 12.6264C45.3979 13.2479 45.2115 13.9646 45.2115 14.7766V26H40.7122ZM65.1476 6.90909V10.3892H54.1728V6.90909H65.1476ZM56.8823 2.33523H61.3816V20.2578C61.3816 20.8627 61.4727 21.3267 61.655 21.6499C61.8456 21.9647 62.0942 22.1802 62.4007 22.2962C62.7073 22.4122 63.0471 22.4702 63.4199 22.4702C63.7016 22.4702 63.9585 22.4495 64.1905 22.408C64.4308 22.3666 64.6131 22.3293 64.7374 22.2962L65.4956 25.8136C65.2553 25.8964 64.9114 25.9876 64.464 26.087C64.0248 26.1864 63.4862 26.2444 62.8482 26.261C61.7213 26.2942 60.7063 26.1243 59.8031 25.7514C58.8999 25.3703 58.1832 24.782 57.6529 23.9865C57.1309 23.1911 56.874 22.1967 56.8823 21.0036V2.33523ZM81.0784 17.9709V6.90909H85.5777V26H81.2151V22.6069H81.0162C80.5854 23.6758 79.8769 24.55 78.8909 25.2294C77.9131 25.9089 76.7075 26.2486 75.2741 26.2486C74.0229 26.2486 72.9167 25.971 71.9555 25.4158C71.0026 24.8524 70.2569 24.0362 69.7183 22.9673C69.1797 21.8902 68.9104 20.5893 68.9104 19.0646V6.90909H73.4097V18.3686C73.4097 19.5784 73.7412 20.5395 74.404 21.2521C75.0669 21.9647 75.9369 22.321 77.0141 22.321C77.677 22.321 78.3192 22.1594 78.9406 21.8363C79.5621 21.5131 80.0716 21.0326 80.4694 20.3945C80.8754 19.7482 81.0784 18.9403 81.0784 17.9709ZM94.7037 14.8139V26H90.2044V6.90909H94.5048V10.1531H94.7285C95.1677 9.08416 95.8678 8.23485 96.829 7.60511C97.7985 6.97538 98.9958 6.66051 100.421 6.66051C101.738 6.66051 102.886 6.94223 103.864 7.50568C104.85 8.06913 105.612 8.8853 106.151 9.95419C106.698 11.0231 106.967 12.3198 106.959 13.8445V26H102.459V14.5405C102.459 13.2644 102.128 12.266 101.465 11.5451C100.81 10.8242 99.9031 10.4638 98.7431 10.4638C97.9559 10.4638 97.2557 10.6378 96.6426 10.9858C96.0377 11.3255 95.5613 11.8185 95.2132 12.4648C94.8735 13.1112 94.7037 13.8942 94.7037 14.8139ZM119.984 26.3729C118.07 26.3729 116.417 25.9751 115.025 25.1797C113.641 24.3759 112.577 23.2408 111.831 21.7741C111.085 20.2992 110.712 18.5633 110.712 16.5664C110.712 14.6026 111.085 12.8791 111.831 11.396C112.585 9.90447 113.637 8.74444 114.988 7.91584C116.338 7.07895 117.925 6.66051 119.748 6.66051C120.925 6.66051 122.035 6.85109 123.079 7.23224C124.131 7.60511 125.059 8.18513 125.863 8.9723C126.675 9.75947 127.313 10.7621 127.777 11.9801C128.241 13.1899 128.473 14.6316 128.473 16.3054V17.685H112.825V14.6523H124.16C124.152 13.7906 123.966 13.0241 123.601 12.353C123.236 11.6735 122.727 11.1391 122.072 10.7496C121.426 10.3602 120.672 10.1655 119.81 10.1655C118.89 10.1655 118.083 10.3892 117.387 10.8366C116.691 11.2758 116.148 11.8558 115.758 12.5767C115.377 13.2893 115.182 14.0723 115.174 14.9258V17.5732C115.174 18.6835 115.377 19.6364 115.783 20.4318C116.189 21.219 116.757 21.8239 117.486 22.2464C118.215 22.6607 119.069 22.8679 120.046 22.8679C120.701 22.8679 121.293 22.7768 121.824 22.5945C122.354 22.4039 122.814 22.1263 123.203 21.7617C123.593 21.3971 123.887 20.9455 124.086 20.407L128.287 20.8793C128.022 21.9896 127.516 22.959 126.77 23.7876C126.033 24.608 125.088 25.246 123.937 25.7017C122.785 26.1491 121.467 26.3729 119.984 26.3729Z" fill="white"/>
</svg>
