<svg width="1440" height="872" viewBox="0 0 1440 872" fill="none" xmlns="http://www.w3.org/2000/svg">
<rect y="-2" width="1440" height="874" fill="#2D5356"/>
<path d="M3 88C38.3333 219.333 109.318 450.814 173 424C249 392 375 204 461 210C547 216 619.754 370 683 370C733 370 893 128 1009 134C1125 140 1051 606 1195 478C1310.2 375.6 1403 155.333 1435 58" stroke="white" stroke-opacity="0.12" stroke-width="4"/>
<path d="M-17 245C18.3333 376.333 89.3177 607.814 153 581C229 549 355 361 441 367C527 373 599.754 527 663 527C713 527 873 285 989 291C1105 297 1031 763 1175 635C1290.2 532.6 1383 312.333 1415 215" stroke="white" stroke-opacity="0.12" stroke-width="4"/>
<path d="M21 -84C56.3333 47.3333 127.318 278.814 191 252C267 220 393 32 479 38C565 44 637.754 198 701 198C751 198 911 -44 1027 -38C1143 -32 1069 434 1213 306C1328.2 203.6 1421 -16.6667 1453 -114" stroke="white" stroke-opacity="0.12" stroke-width="4"/>
<path d="M115.802 470.715C114.951 465.946 120.699 462.875 124.19 466.232L136.664 478.228C138.225 479.729 140.576 480.055 142.486 479.034L157.75 470.877C162.022 468.594 166.719 473.112 164.605 477.47L157.051 493.04C156.105 494.989 156.522 497.325 158.084 498.826L170.557 510.822C174.049 514.179 171.204 520.043 166.406 519.379L149.264 517.006C147.118 516.709 145.025 517.827 144.08 519.776L136.526 535.347C134.411 539.704 127.956 538.811 127.105 534.043L124.064 517.006C123.683 514.873 121.973 513.229 119.827 512.932L102.685 510.559C97.887 509.895 96.7419 503.479 101.014 501.196L116.277 493.04C118.188 492.019 119.223 489.884 118.843 487.751L115.802 470.715Z" fill="white" fill-opacity="0.1"/>
<path d="M1179.8 706.715C1178.95 701.946 1184.7 698.875 1188.19 702.232L1200.66 714.228C1202.23 715.73 1204.58 716.055 1206.49 715.034L1221.75 706.877C1226.02 704.595 1230.72 709.112 1228.6 713.47L1221.05 729.04C1220.11 730.989 1220.52 733.325 1222.08 734.827L1234.56 746.822C1238.05 750.18 1235.2 756.043 1230.41 755.379L1213.26 753.006C1211.12 752.709 1209.03 753.828 1208.08 755.777L1200.53 771.347C1198.41 775.705 1191.96 774.811 1191.1 770.043L1188.06 753.006C1187.68 750.874 1185.97 749.229 1183.83 748.932L1166.68 746.559C1161.89 745.895 1160.74 739.479 1165.01 737.196L1180.28 729.04C1182.19 728.019 1183.22 725.884 1182.84 723.752L1179.8 706.715Z" fill="white" fill-opacity="0.1"/>
<path d="M536.802 841.715C535.951 836.946 541.699 833.875 545.19 837.232L557.664 849.228C559.225 850.73 561.576 851.055 563.486 850.034L578.75 841.877C583.022 839.595 587.719 844.112 585.605 848.47L578.051 864.04C577.105 865.989 577.522 868.325 579.084 869.827L591.557 881.822C595.049 885.18 592.204 891.043 587.406 890.379L570.264 888.006C568.118 887.709 566.025 888.828 565.08 890.777L557.526 906.347C555.411 910.705 548.956 909.811 548.105 905.043L545.064 888.006C544.683 885.874 542.973 884.229 540.827 883.932L523.685 881.559C518.887 880.895 517.742 874.479 522.014 872.196L537.277 864.04C539.188 863.019 540.223 860.884 539.843 858.752L536.802 841.715Z" fill="white" fill-opacity="0.1"/>
<path d="M250.802 57.7145C249.951 52.9463 255.699 49.8747 259.19 53.2321L271.664 65.2279C273.225 66.7293 275.576 67.0547 277.486 66.0337L292.75 57.8772C297.022 55.5944 301.719 60.1117 299.605 64.4695L292.051 80.0398C291.105 81.9887 291.522 84.3248 293.084 85.8263L305.557 97.822C309.049 101.179 306.204 107.043 301.406 106.379L284.264 104.006C282.118 103.709 280.025 104.827 279.08 106.776L271.526 122.347C269.411 126.704 262.956 125.811 262.105 121.043L259.064 104.006C258.683 101.873 256.973 100.229 254.827 99.9316L237.685 97.5588C232.887 96.8947 231.742 90.479 236.014 88.1962L251.277 80.0396C253.188 79.0187 254.223 76.8837 253.843 74.7513L250.802 57.7145Z" fill="white" fill-opacity="0.1"/>
<path d="M1326.8 182.715C1325.95 177.946 1331.7 174.875 1335.19 178.232L1347.66 190.228C1349.23 191.729 1351.58 192.055 1353.49 191.034L1368.75 182.877C1373.02 180.594 1377.72 185.112 1375.6 189.47L1368.05 205.04C1367.11 206.989 1367.52 209.325 1369.08 210.826L1381.56 222.822C1385.05 226.179 1382.2 232.043 1377.41 231.379L1360.26 229.006C1358.12 228.709 1356.03 229.827 1355.08 231.776L1347.53 247.347C1345.41 251.704 1338.96 250.811 1338.1 246.043L1335.06 229.006C1334.68 226.873 1332.97 225.229 1330.83 224.932L1313.68 222.559C1308.89 221.895 1307.74 215.479 1312.01 213.196L1327.28 205.04C1329.19 204.019 1330.22 201.884 1329.84 199.751L1326.8 182.715Z" fill="white" fill-opacity="0.1"/>
<path d="M624.802 366.715C623.951 361.946 629.699 358.875 633.19 362.232L645.664 374.228C647.225 375.729 649.576 376.055 651.486 375.034L666.75 366.877C671.022 364.594 675.719 369.112 673.605 373.47L666.051 389.04C665.105 390.989 665.522 393.325 667.084 394.826L679.557 406.822C683.049 410.179 680.204 416.043 675.406 415.379L658.264 413.006C656.118 412.709 654.025 413.827 653.08 415.776L645.526 431.347C643.411 435.704 636.956 434.811 636.105 430.043L633.064 413.006C632.683 410.873 630.973 409.229 628.827 408.932L611.685 406.559C606.887 405.895 605.742 399.479 610.014 397.196L625.277 389.04C627.188 388.019 628.223 385.884 627.843 383.751L624.802 366.715Z" fill="white" fill-opacity="0.1"/>
<path d="M860.802 618.715C859.951 613.946 865.699 610.875 869.19 614.232L881.664 626.228C883.225 627.73 885.576 628.055 887.486 627.034L902.75 618.877C907.022 616.595 911.719 621.112 909.605 625.47L902.051 641.04C901.105 642.989 901.522 645.325 903.084 646.827L915.557 658.822C919.049 662.18 916.204 668.043 911.406 667.379L894.264 665.006C892.118 664.709 890.025 665.828 889.08 667.777L881.526 683.347C879.411 687.705 872.956 686.811 872.105 682.043L869.064 665.006C868.683 662.874 866.973 661.229 864.827 660.932L847.685 658.559C842.887 657.895 841.742 651.479 846.014 649.196L861.277 641.04C863.188 640.019 864.223 637.884 863.843 635.752L860.802 618.715Z" fill="white" fill-opacity="0.1"/>
</svg>
