<svg width="34" height="34" viewBox="0 0 34 34" fill="none" xmlns="http://www.w3.org/2000/svg">
<path d="M29.75 17C29.75 24.0416 24.0416 29.75 17 29.75C15.304 29.75 13.6854 29.4189 12.2053 28.8177C11.922 28.7027 11.7804 28.6452 11.6659 28.6195C11.5539 28.5944 11.471 28.5852 11.3562 28.5852C11.2388 28.5852 11.111 28.6065 10.8554 28.6491L5.81508 29.4892C5.28726 29.5771 5.02335 29.6211 4.83251 29.5393C4.66548 29.4676 4.53238 29.3345 4.46074 29.1675C4.37889 28.9767 4.42288 28.7127 4.51085 28.1849L5.3509 23.1446C5.39351 22.889 5.41481 22.7612 5.41479 22.6438C5.41478 22.529 5.4056 22.4461 5.38049 22.3341C5.35483 22.2196 5.2973 22.078 5.18225 21.7947C4.58113 20.3146 4.25 18.696 4.25 17C4.25 9.95837 9.95837 4.25 17 4.25C24.0416 4.25 29.75 9.95837 29.75 17Z" stroke="white" stroke-width="2" stroke-linecap="round" stroke-linejoin="round"/>
</svg>
