<svg width="34" height="34" viewBox="0 0 34 34" fill="none" xmlns="http://www.w3.org/2000/svg">
<path d="M11.8721 12.542C12.8581 14.5956 14.2022 16.5204 15.9044 18.2226C17.6066 19.9248 19.5314 21.269 21.585 22.255C21.7617 22.3398 21.85 22.3822 21.9617 22.4148C22.3589 22.5305 22.8466 22.4474 23.183 22.2065C23.2776 22.1387 23.3586 22.0578 23.5205 21.8958C24.0158 21.4006 24.2634 21.1529 24.5125 20.991C25.4516 20.3804 26.6622 20.3804 27.6013 20.991C27.8503 21.1529 28.098 21.4006 28.5932 21.8958L28.8693 22.1719C29.6222 22.9248 29.9986 23.3012 30.2031 23.7055C30.6098 24.5095 30.6098 25.4591 30.2031 26.2631C29.9986 26.6674 29.6222 27.0439 28.8693 27.7967L28.646 28.0201C27.8957 28.7704 27.5205 29.1455 27.0105 29.432C26.4445 29.75 25.5655 29.9786 24.9164 29.9766C24.3313 29.9749 23.9315 29.8614 23.1319 29.6344C18.8346 28.4147 14.7796 26.1134 11.3966 22.7304C8.01363 19.3474 5.71229 15.2924 4.49258 10.9951C4.26562 10.1955 4.15214 9.79567 4.1504 9.21067C4.14847 8.56152 4.37707 7.68249 4.695 7.11652C4.98151 6.60648 5.35666 6.23133 6.10696 5.48103L6.33028 5.25771C7.08316 4.50484 7.45959 4.1284 7.86388 3.92391C8.66793 3.51723 9.61747 3.51723 10.4215 3.92391C10.8258 4.1284 11.2022 4.50483 11.9551 5.25771L12.2312 5.53378C12.7265 6.02905 12.9741 6.27669 13.136 6.52571C13.7466 7.4648 13.7466 8.67546 13.136 9.61455C12.9741 9.86357 12.7265 10.1112 12.2312 10.6065C12.0692 10.7684 11.9883 10.8494 11.9205 10.944C11.6796 11.2804 11.5965 11.7681 11.7123 12.1653C11.7448 12.277 11.7872 12.3654 11.8721 12.542Z" stroke="white" stroke-width="2" stroke-linecap="round" stroke-linejoin="round"/>
</svg>
