<svg width="35" height="36" viewBox="0 0 35 36" fill="none" xmlns="http://www.w3.org/2000/svg">
<path d="M23.3339 13.6251V9.25008C23.3339 6.02842 20.7222 3.41675 17.5006 3.41675C14.2789 3.41675 11.6672 6.02842 11.6672 9.25008V13.6251M5.2389 15.5967L4.3639 24.93C4.11511 27.5838 3.99072 28.9106 4.43105 29.9355C4.81787 30.8358 5.49573 31.5802 6.356 32.0493C7.33528 32.5834 8.66797 32.5834 11.3333 32.5834H23.6678C26.3331 32.5834 27.6658 32.5834 28.6451 32.0493C29.5054 31.5802 30.1832 30.8358 30.5701 29.9355C31.0104 28.9106 30.886 27.5838 30.6372 24.93L29.7622 15.5967C29.5521 13.3558 29.4471 12.2353 28.9431 11.3882C28.4993 10.6422 27.8435 10.045 27.0593 9.67277C26.1689 9.25008 25.0435 9.25008 22.7928 9.25008L12.2083 9.25008C9.95761 9.25008 8.83224 9.25008 7.94179 9.67277C7.15757 10.045 6.50182 10.6422 6.05798 11.3882C5.55402 12.2353 5.44898 13.3558 5.2389 15.5967Z" stroke="white" stroke-width="2" stroke-linecap="round" stroke-linejoin="round"/>
</svg>
