<svg width="35" height="36" viewBox="0 0 35 36" fill="none" xmlns="http://www.w3.org/2000/svg">
<path d="M29.1667 31.125C29.1667 29.0898 29.1667 28.0722 28.9155 27.2442C28.35 25.3798 26.891 23.9209 25.0267 23.3553C24.1986 23.1042 23.181 23.1042 21.1458 23.1042H13.8542C11.819 23.1042 10.8014 23.1042 9.97335 23.3553C8.10901 23.9209 6.65007 25.3798 6.08453 27.2442C5.83334 28.0722 5.83334 29.0898 5.83334 31.125M24.0625 11.4375C24.0625 15.0619 21.1244 18 17.5 18C13.8756 18 10.9375 15.0619 10.9375 11.4375C10.9375 7.81313 13.8756 4.875 17.5 4.875C21.1244 4.875 24.0625 7.81313 24.0625 11.4375Z" stroke="white" stroke-width="2" stroke-linecap="round" stroke-linejoin="round"/>
</svg>
